With: Patrick Huard, Justin Chatwin en Paul Doucet

Het is het jaar 1976 in Montréal. De stad is sterk groeiende en er gaan geruchten dat Quebec zich zal afscheiden van Canada. Zelfgenoegzaamheid is uitgegroeid tot de gouden standaard en de jongeren bezoeken massaal de nachtclubs, op zoek naar het goede leven. Zeven brutale Canadezen broeden op een plan dat het hele systeem zal laten schudden op hun grondvesten, en hun rijker zal maken dan ze ooit hadden durven dromen.

1976. Montreal. Eight people who wanted to see and be seen at the trendiest disco will be juggling fame and anonymity until they will be forced to make sober choices in an era when excess was the norm, and when disco was king. 

------------------------ Dutch Friends ------------------------
---------------------------------------------------------------
- Bezoek ook eens mijn vrienden op:  http://www.Film-Test.nl --
----- voor mijn Nederlandse Sync. ondertitels ---- en meer ----
------- http://www.Film-Test.nl ---- voor Films en meer -------
---------------------------------------------------------------

General:

Complete name                    : Funkytown\Funkytown.avi
Format                           : AVI
Format/Info                      : Audio Video Interleave
File size                        : 2.05 GiB
Duration                         : 2h 7mn
Overall bit rate                 : 2 296 Kbps

Video:

Format                           : MPEG-4 Visual
Format profile                   : Simple@L3
Format settings, BVOP            : No
Format settings, QPel            : No
Format settings, GMC             : No warppoints
Format settings, Matrix          : Default (H.263)
Codec ID                         : XVID
Codec ID/Hint                    : XviD
Duration                         : 2h 7mn
Bit rate                         : 1 838 Kbps
Width                            : 720 pixels
Height                           : 304 pixels
Display aspect ratio             : 2.35:1
Frame rate                       : 25.000 fps
Color space                      : YUV
Chroma subsampling               : 4:2:0
Bit depth                        : 8 bits
Scan type                        : Progressive
Compression mode                 : Lossy
Bits/(Pixel*Frame)               : 0.336
Stream size                      : 1.64 GiB (80%)
Writing library                  : XviD 1.1.2 (UTC 2006-11-01)

Audio:

Format                           : AC-3
Format/Info                      : Audio Coding 3
Mode extension                   : CM (complete main)
Codec ID                         : 2000
Duration                         : 2h 7mn
Bit rate mode                    : Constant
Bit rate                         : 448 Kbps
Channel(s)                       : 6 channels
Channel positions                : Front: L C R, Side: L R, LFE
Sampling rate                    : 48.0 KHz
Bit depth                        : 16 bits
Compression mode                 : Lossy
Stream size                      : 409 MiB (20%)
Alignment                        : Aligned on interleaves
Interleave, duration             : 32 ms (0.80 video frame)
Interleave, preload duration     : 32 ms


